<svg width="127" height="49" viewBox="0 0 127 49" fill="none" xmlns="http://www.w3.org/2000/svg">
  <path d="M5.5 19.9091L15.3038 14.1818V9L1.26489 17.1818V36.1364L21.6851 48L42.2649 36V17.5909L32.3738 12V16.3636L37.4789 19.9091L22 29L5.5 19.9091Z" fill="#181C8B" stroke="#181C8B"/>
  <path d="M18.2649 5.9689L30.2649 0V15.7466L18.2649 22V5.9689Z" fill="#4290F0"/>
  <path d="M25.6121 31.6555L34.1259 35.5034L47.5874 17.5037" stroke="#68D684" stroke-width="3"/>
  <path d="M55.4969 23H57.8769C58.6282 23 59.2302 22.762 59.6829 22.286C60.1356 21.81 60.3619 21.1847 60.3619 20.41V15.09C60.3619 14.3107 60.1356 13.6853 59.6829 13.214C59.2302 12.738 58.6282 12.5 57.8769 12.5H55.4969V23ZM56.5469 21.95V13.55H57.8769C58.3109 13.55 58.6586 13.6923 58.9199 13.977C59.1812 14.257 59.3119 14.628 59.3119 15.09V20.41C59.3119 20.872 59.1812 21.2453 58.9199 21.53C58.6586 21.81 58.3109 21.95 57.8769 21.95H56.5469ZM66.8549 12.5H62.6199V23H66.8549V21.95H63.6699V18.275H66.4769V17.225H63.6699V13.55H66.8549V12.5ZM68.6766 23H69.6916V15.79L71.5816 23H72.4076L74.2976 15.79V23H75.3126V12.5H74.2206L71.9946 21.047L69.7686 12.5H68.6766V23ZM80.113 23.224C80.8644 23.224 81.4664 22.986 81.919 22.51C82.3717 22.034 82.598 21.4087 82.598 20.634V14.866C82.598 14.0867 82.3717 13.4613 81.919 12.99C81.4664 12.514 80.8644 12.276 80.113 12.276C79.3664 12.276 78.7644 12.514 78.307 12.99C77.8544 13.4613 77.628 14.0867 77.628 14.866V20.634C77.628 21.4087 77.8544 22.034 78.307 22.51C78.7644 22.986 79.3664 23.224 80.113 23.224ZM80.113 22.174C79.679 22.174 79.3314 22.034 79.07 21.754C78.8087 21.4693 78.678 21.096 78.678 20.634V14.866C78.678 14.404 78.8087 14.033 79.07 13.753C79.3314 13.4683 79.679 13.326 80.113 13.326C80.547 13.326 80.8947 13.4683 81.156 13.753C81.4174 14.033 81.548 14.404 81.548 14.866V20.634C81.548 21.096 81.4174 21.4693 81.156 21.754C80.8947 22.034 80.547 22.174 80.113 22.174ZM89.7211 20.284H88.6711V20.634C88.6711 21.096 88.5404 21.4693 88.2791 21.754C88.0178 22.034 87.6701 22.174 87.2361 22.174C86.8021 22.174 86.4544 22.034 86.1931 21.754C85.9318 21.4693 85.8011 21.096 85.8011 20.634V14.866C85.8011 14.404 85.9318 14.033 86.1931 13.753C86.4544 13.4683 86.8021 13.326 87.2361 13.326C87.6701 13.326 88.0178 13.4683 88.2791 13.753C88.5404 14.033 88.6711 14.404 88.6711 14.866V15.216H89.7211V14.866C89.7211 14.0867 89.4948 13.4613 89.0421 12.99C88.5894 12.514 87.9874 12.276 87.2361 12.276C86.4894 12.276 85.8874 12.514 85.4301 12.99C84.9774 13.4613 84.7511 14.0867 84.7511 14.866V20.634C84.7511 21.4087 84.9774 22.034 85.4301 22.51C85.8874 22.986 86.4894 23.224 87.2361 23.224C87.9874 23.224 88.5894 22.986 89.0421 22.51C89.4948 22.034 89.7211 21.4087 89.7211 20.634V20.284ZM91.5906 23H92.6406V18.674H94.1806C94.554 18.674 94.8503 18.786 95.0696 19.01C95.2936 19.234 95.4056 19.5303 95.4056 19.899V23H96.4556V19.899C96.4556 19.157 96.1593 18.6087 95.5666 18.254C96.1593 17.82 96.4556 17.1667 96.4556 16.294V14.88C96.4556 14.166 96.248 13.592 95.8326 13.158C95.4173 12.7193 94.8666 12.5 94.1806 12.5H91.5906V23ZM92.6406 17.624V13.55H94.1806C94.554 13.55 94.8503 13.6713 95.0696 13.914C95.2936 14.1567 95.4056 14.4787 95.4056 14.88V16.294C95.4056 16.6907 95.2936 17.0127 95.0696 17.26C94.8503 17.5027 94.554 17.624 94.1806 17.624H92.6406ZM97.9007 23H98.9857L99.4337 20.9H102.045L102.493 23H103.578L101.303 12.5H100.183L97.9007 23ZM99.6297 19.85L100.743 14.418L101.849 19.85H99.6297ZM109.942 20.284H108.892V20.634C108.892 21.096 108.761 21.4693 108.5 21.754C108.238 22.034 107.891 22.174 107.457 22.174C107.023 22.174 106.675 22.034 106.414 21.754C106.152 21.4693 106.022 21.096 106.022 20.634V14.866C106.022 14.404 106.152 14.033 106.414 13.753C106.675 13.4683 107.023 13.326 107.457 13.326C107.891 13.326 108.238 13.4683 108.5 13.753C108.761 14.033 108.892 14.404 108.892 14.866V15.216H109.942V14.866C109.942 14.0867 109.715 13.4613 109.263 12.99C108.81 12.514 108.208 12.276 107.457 12.276C106.71 12.276 106.108 12.514 105.651 12.99C105.198 13.4613 104.972 14.0867 104.972 14.866V20.634C104.972 21.4087 105.198 22.034 105.651 22.51C106.108 22.986 106.71 23.224 107.457 23.224C108.208 23.224 108.81 22.986 109.263 22.51C109.715 22.034 109.942 21.4087 109.942 20.634V20.284ZM112.861 23V12.5H111.811V23H112.861ZM114.471 23H115.556L116.004 20.9H118.615L119.063 23H120.148L117.873 12.5H116.753L114.471 23ZM116.2 19.85L117.313 14.418L118.419 19.85H116.2ZM123.843 23.224C124.595 23.224 125.197 22.986 125.649 22.51C126.102 22.034 126.328 21.4087 126.328 20.634V19.85C126.328 19.4113 126.312 19.066 126.279 18.814C126.251 18.562 126.163 18.359 126.013 18.205C125.869 18.051 125.626 17.9063 125.285 17.771C124.945 17.6357 124.464 17.4653 123.843 17.26C123.484 17.1387 123.206 17.0383 123.01 16.959C122.814 16.8797 122.672 16.7933 122.583 16.7C122.499 16.6067 122.448 16.4853 122.429 16.336C122.415 16.182 122.408 15.9767 122.408 15.72V14.866C122.408 14.404 122.539 14.033 122.8 13.753C123.062 13.4683 123.409 13.326 123.843 13.326C124.277 13.326 124.625 13.4683 124.886 13.753C125.148 14.033 125.278 14.404 125.278 14.866V15.216H126.328V14.866C126.328 14.0867 126.102 13.4613 125.649 12.99C125.197 12.514 124.595 12.276 123.843 12.276C123.097 12.276 122.495 12.514 122.037 12.99C121.585 13.4613 121.358 14.0867 121.358 14.866V15.72C121.358 16.1587 121.372 16.504 121.4 16.756C121.433 17.008 121.522 17.211 121.666 17.365C121.816 17.519 122.061 17.6637 122.401 17.799C122.742 17.9343 123.223 18.1047 123.843 18.31C124.203 18.4267 124.48 18.527 124.676 18.611C124.872 18.6903 125.012 18.7767 125.096 18.87C125.185 18.9633 125.236 19.087 125.25 19.241C125.269 19.3903 125.278 19.5933 125.278 19.85V20.634C125.278 21.096 125.148 21.4693 124.886 21.754C124.625 22.034 124.277 22.174 123.843 22.174C123.409 22.174 123.062 22.034 122.8 21.754C122.539 21.4693 122.408 21.096 122.408 20.634V20.284H121.358V20.634C121.358 21.4087 121.585 22.034 122.037 22.51C122.495 22.986 123.097 23.224 123.843 23.224ZM60.3129 34.284H59.2629V34.634C59.2629 35.096 59.1322 35.4693 58.8709 35.754C58.6096 36.034 58.2619 36.174 57.8279 36.174C57.3939 36.174 57.0462 36.034 56.7849 35.754C56.5236 35.4693 56.3929 35.096 56.3929 34.634V28.866C56.3929 28.404 56.5236 28.033 56.7849 27.753C57.0462 27.4683 57.3939 27.326 57.8279 27.326C58.2619 27.326 58.6096 27.4683 58.8709 27.753C59.1322 28.033 59.2629 28.404 59.2629 28.866V29.216H60.3129V28.866C60.3129 28.0867 60.0866 27.4613 59.6339 26.99C59.1812 26.514 58.5792 26.276 57.8279 26.276C57.0812 26.276 56.4792 26.514 56.0219 26.99C55.5692 27.4613 55.3429 28.0867 55.3429 28.866V34.634C55.3429 35.4087 55.5692 36.034 56.0219 36.51C56.4792 36.986 57.0812 37.224 57.8279 37.224C58.5792 37.224 59.1812 36.986 59.6339 36.51C60.0866 36.034 60.3129 35.4087 60.3129 34.634V34.284ZM64.5134 37.224C65.2648 37.224 65.8668 36.986 66.3194 36.51C66.7721 36.034 66.9984 35.4087 66.9984 34.634V28.866C66.9984 28.0867 66.7721 27.4613 66.3194 26.99C65.8668 26.514 65.2648 26.276 64.5134 26.276C63.7668 26.276 63.1648 26.514 62.7074 26.99C62.2548 27.4613 62.0284 28.0867 62.0284 28.866V34.634C62.0284 35.4087 62.2548 36.034 62.7074 36.51C63.1648 36.986 63.7668 37.224 64.5134 37.224ZM64.5134 36.174C64.0794 36.174 63.7318 36.034 63.4704 35.754C63.2091 35.4693 63.0784 35.096 63.0784 34.634V28.866C63.0784 28.404 63.2091 28.033 63.4704 27.753C63.7318 27.4683 64.0794 27.326 64.5134 27.326C64.9474 27.326 65.2951 27.4683 65.5564 27.753C65.8178 28.033 65.9484 28.404 65.9484 28.866V34.634C65.9484 35.096 65.8178 35.4693 65.5564 35.754C65.2951 36.034 64.9474 36.174 64.5134 36.174ZM70.1455 37H71.1955V27.55H72.9945V26.5H68.3395V27.55H70.1455V37ZM75.5371 37V26.5H74.4871V37H75.5371ZM78.0008 37H80.3808C81.1321 37 81.7341 36.762 82.1868 36.286C82.6395 35.81 82.8658 35.1847 82.8658 34.41V29.09C82.8658 28.3107 82.6395 27.6853 82.1868 27.214C81.7341 26.738 81.1321 26.5 80.3808 26.5H78.0008V37ZM79.0508 35.95V27.55H80.3808C80.8148 27.55 81.1625 27.6923 81.4238 27.977C81.6851 28.257 81.8158 28.628 81.8158 29.09V34.41C81.8158 34.872 81.6851 35.2453 81.4238 35.53C81.1625 35.81 80.8148 35.95 80.3808 35.95H79.0508ZM86.1738 37V26.5H85.1238V37H86.1738ZM87.7835 37H88.8685L89.3165 34.9H91.9275L92.3755 37H93.4605L91.1855 26.5H90.0655L87.7835 37ZM89.5125 33.85L90.6255 28.418L91.7315 33.85H89.5125ZM95.077 37H96.092V29.202L99.088 37H100.012V26.5H98.997V34.291L96.008 26.5H95.077V37ZM101.619 37H102.704L103.152 34.9H105.763L106.211 37H107.296L105.021 26.5H103.901L101.619 37ZM103.348 33.85L104.461 28.418L105.567 33.85H103.348ZM110.992 37.224C111.743 37.224 112.345 36.986 112.798 36.51C113.251 36.034 113.477 35.4087 113.477 34.634V33.85C113.477 33.4113 113.461 33.066 113.428 32.814C113.4 32.562 113.311 32.359 113.162 32.205C113.017 32.051 112.775 31.9063 112.434 31.771C112.093 31.6357 111.613 31.4653 110.992 31.26C110.633 31.1387 110.355 31.0383 110.159 30.959C109.963 30.8797 109.821 30.7933 109.732 30.7C109.648 30.6067 109.597 30.4853 109.578 30.336C109.564 30.182 109.557 29.9767 109.557 29.72V28.866C109.557 28.404 109.688 28.033 109.949 27.753C110.21 27.4683 110.558 27.326 110.992 27.326C111.426 27.326 111.774 27.4683 112.035 27.753C112.296 28.033 112.427 28.404 112.427 28.866V29.216H113.477V28.866C113.477 28.0867 113.251 27.4613 112.798 26.99C112.345 26.514 111.743 26.276 110.992 26.276C110.245 26.276 109.643 26.514 109.186 26.99C108.733 27.4613 108.507 28.0867 108.507 28.866V29.72C108.507 30.1587 108.521 30.504 108.549 30.756C108.582 31.008 108.67 31.211 108.815 31.365C108.964 31.519 109.209 31.6637 109.55 31.799C109.891 31.9343 110.371 32.1047 110.992 32.31C111.351 32.4267 111.629 32.527 111.825 32.611C112.021 32.6903 112.161 32.7767 112.245 32.87C112.334 32.9633 112.385 33.087 112.399 33.241C112.418 33.3903 112.427 33.5933 112.427 33.85V34.634C112.427 35.096 112.296 35.4693 112.035 35.754C111.774 36.034 111.426 36.174 110.992 36.174C110.558 36.174 110.21 36.034 109.949 35.754C109.688 35.4693 109.557 35.096 109.557 34.634V34.284H108.507V34.634C108.507 35.4087 108.733 36.034 109.186 36.51C109.643 36.986 110.245 37.224 110.992 37.224Z" fill="#181C8B"/>
</svg>